<?xml version="1.0" encoding="utf-8"?>
<!-- Generator: Adobe Illustrator 23.0.1, SVG Export Plug-In . SVG Version: 6.00 Build 0)  -->
<svg version="1.1" id="Слой_1" xmlns="http://www.w3.org/2000/svg" xmlns:xlink="http://www.w3.org/1999/xlink" x="0px" y="0px"
	 viewBox="0 0 158 80" style="enable-background:new 0 0 158 80;" xml:space="preserve">
<style type="text/css">
	.st0{fill:#15191F;}
	.st1{fill:none;stroke:#2C3139;}
</style>
<path class="st0" d="M157.9,79.3H-1.9v-39c4.4,0,8.7,0,13.1,0c4.2-0.4,10.3-1.4,16-5.3c4.8-3.2,8.8-7.7,12-12.5
	c7-10.5,19.1-21.8,39-21.8c20.8,0,33.8,12.2,41.2,23c6.2,9,15.9,16.5,27.1,16.5c3.8,0,7.6,0,11.4,0V79.3z"/>
<path class="st1" d="M-1.9,40.3c4.4,0,8.7,0,13.1,0c4.2-0.4,10.3-1.4,16-5.3c4.8-3.2,8.8-7.7,12-12.5c7-10.5,19.1-21.7,39-21.7
	c20.8,0,33.8,12.2,41.2,23c6.2,9,15.9,16.5,27.1,16.5c3.8,0,7.6,0,11.4,0"/>
</svg>
