<?xml version="1.0" encoding="utf-8"?>
<!-- Generator: Adobe Illustrator 23.0.1, SVG Export Plug-In . SVG Version: 6.00 Build 0)  -->
<svg version="1.1" id="Слой_1" xmlns="http://www.w3.org/2000/svg" xmlns:xlink="http://www.w3.org/1999/xlink" x="0px" y="0px"
	 viewBox="0 0 35 30" style="enable-background:new 0 0 35 30;" xml:space="preserve">
<style type="text/css">
	.st0{fill:#292D32;}
	.st1{fill:#1F242C;}
</style>
<path class="st0" d="M26.4,29.7c-0.5,0-0.9-0.3-1.1-0.7L13.8,4.5L2.4,29c-0.3,0.6-1,0.9-1.7,0.6c-0.6-0.3-0.9-1-0.6-1.7L12.7,1
	c0.2-0.4,0.6-0.7,1.1-0.7c0.5,0,0.9,0.3,1.1,0.7l12.6,27c0.3,0.6,0,1.4-0.6,1.7C26.8,29.7,26.6,29.7,26.4,29.7z"/>
<path class="st0" d="M21.7,20.4H5.9c-0.7,0-1.3-0.6-1.3-1.3s0.6-1.3,1.3-1.3h15.8c0.7,0,1.3,0.6,1.3,1.3S22.4,20.4,21.7,20.4z"/>
<path class="st1" d="M33.7,10.7H23.1c-0.7,0-1.3-0.6-1.3-1.3s0.6-1.3,1.3-1.3h10.7c0.7,0,1.3,0.6,1.3,1.3S34.4,10.7,33.7,10.7z"/>
<path class="st1" d="M28.4,16.1c-0.7,0-1.3-0.6-1.3-1.3V4.2c0-0.7,0.6-1.3,1.3-1.3s1.3,0.6,1.3,1.3v10.7
	C29.7,15.5,29.1,16.1,28.4,16.1z"/>
</svg>
