<?xml version="1.0" encoding="utf-8"?>
<!-- Generator: Adobe Illustrator 23.0.1, SVG Export Plug-In . SVG Version: 6.00 Build 0)  -->
<svg version="1.1" id="Слой_1" xmlns="http://www.w3.org/2000/svg" xmlns:xlink="http://www.w3.org/1999/xlink" x="0px" y="0px"
	 viewBox="0 0 40 40" style="enable-background:new 0 0 40 40;" xml:space="preserve">
<style type="text/css">
	.st0{fill:#E3E6EA;}
</style>
<path class="st0" d="M40,20C40,9,31,0,20,0S0,9,0,20s9,20,20,20S40,31,40,20z M17.9,27.1l-6-6c-0.3-0.3-0.4-0.7-0.4-1.1
	s0.1-0.8,0.4-1.1l6-6c0.6-0.6,1.5-0.6,2.1,0s0.6,1.5,0,2.1l-3.4,3.4H27c0.8,0,1.5,0.7,1.5,1.5s-0.7,1.5-1.5,1.5H16.6l3.4,3.4
	c0.6,0.6,0.6,1.5,0,2.1S18.5,27.6,17.9,27.1z"/>
</svg>
