<?xml version="1.0" encoding="utf-8"?>
<!-- Generator: Adobe Illustrator 23.0.1, SVG Export Plug-In . SVG Version: 6.00 Build 0)  -->
<svg version="1.1" id="Слой_1" xmlns="http://www.w3.org/2000/svg" xmlns:xlink="http://www.w3.org/1999/xlink" x="0px" y="0px"
	 viewBox="0 0 14 23" style="enable-background:new 0 0 14 23;" xml:space="preserve">
<style type="text/css">
	.st0{fill:#292D32;}
</style>
<path class="st0" d="M12.3,23c-0.3,0-0.6-0.1-0.8-0.3l-9.2-8.4c-0.8-0.7-1.2-1.7-1.2-2.7c0-1,0.4-2,1.2-2.7l9.2-8.4
	c0.5-0.5,1.3-0.4,1.8,0.1c0.5,0.5,0.4,1.3-0.1,1.8l-9.2,8.4c-0.3,0.2-0.4,0.6-0.4,0.9c0,0.3,0.1,0.6,0.4,0.9l9.2,8.4
	c0.5,0.5,0.5,1.3,0.1,1.8C12.9,22.8,12.6,23,12.3,23z"/>
</svg>
