<?xml version="1.0" encoding="utf-8"?>
<!-- Generator: Adobe Illustrator 23.0.1, SVG Export Plug-In . SVG Version: 6.00 Build 0)  -->
<svg version="1.1" id="Слой_1" xmlns="http://www.w3.org/2000/svg" xmlns:xlink="http://www.w3.org/1999/xlink" x="0px" y="0px"
	 viewBox="0 0 14 23" style="enable-background:new 0 0 14 23;" xml:space="preserve">
<style type="text/css">
	.st0{fill:#292D32;}
</style>
<path class="st0" d="M2.4,0.2c0.3,0,0.6,0.1,0.8,0.3l9.2,8.4c0.8,0.7,1.2,1.7,1.2,2.7s-0.4,2-1.2,2.7l-9.2,8.4
	c-0.5,0.5-1.3,0.4-1.8-0.1S1,21.3,1.5,20.8l9.2-8.4c0.3-0.2,0.4-0.6,0.4-0.9c0-0.3-0.1-0.6-0.4-0.9L1.5,2.2C1,1.7,1,0.9,1.4,0.4
	C1.8,0.4,2.1,0.2,2.4,0.2z"/>
</svg>
