<?xml version="1.0" encoding="utf-8"?>
<!-- Generator: Adobe Illustrator 23.0.1, SVG Export Plug-In . SVG Version: 6.00 Build 0)  -->
<svg version="1.1" id="Слой_1" xmlns="http://www.w3.org/2000/svg" xmlns:xlink="http://www.w3.org/1999/xlink" x="0px" y="0px"
	 viewBox="0 0 38 38" style="enable-background:new 0 0 38 38;" xml:space="preserve">
<style type="text/css">
	.st0{fill:#1E1E1E;}
</style>
<path class="st0" d="M26.1,36.1H11.9c-5.3,0-6-2.9-6-6V16.2c0-0.7,0.6-1.3,1.3-1.3s1.3,0.6,1.3,1.3v13.9c0,2.7,0.5,3.5,3.5,3.5h14.3
	c3,0,3.5-0.8,3.5-3.5V16.2c0-0.7,0.6-1.3,1.3-1.3s1.3,0.6,1.3,1.3v13.9C32.1,33.2,31.4,36.1,26.1,36.1z"/>
<path class="st0" d="M30.1,17.1H7.9c-3.9,0-6-2.1-6-6V7.9c0-3.9,2.1-6,6-6h22.2c3.9,0,6,2.1,6,6v3.2C36.1,15,34,17.1,30.1,17.1z
	 M7.9,4.4c-2.5,0-3.5,1-3.5,3.5v3.2c0,2.5,1,3.5,3.5,3.5h22.2c2.5,0,3.5-1,3.5-3.5V7.9c0-2.5-1-3.5-3.5-3.5H7.9z"/>
<path class="st0" d="M21.9,23.4h-5.8c-0.7,0-1.3-0.6-1.3-1.3s0.6-1.3,1.3-1.3h5.8c0.7,0,1.3,0.6,1.3,1.3S22.6,23.4,21.9,23.4z"/>
</svg>
