<?xml version="1.0" encoding="utf-8"?>
<!-- Generator: Adobe Illustrator 23.0.1, SVG Export Plug-In . SVG Version: 6.00 Build 0)  -->
<svg version="1.1" id="Слой_1" xmlns="http://www.w3.org/2000/svg" xmlns:xlink="http://www.w3.org/1999/xlink" x="0px" y="0px"
	 viewBox="0 0 40 40" style="enable-background:new 0 0 40 40;" xml:space="preserve">
<style type="text/css">
	.st0{fill:#67707B;}
</style>
<path class="st0" d="M0,20c0,11,9,20,20,20s20-9,20-20S31,0,20,0S0,9,0,20z M22.1,12.9l6,6c0.3,0.3,0.4,0.7,0.4,1.1
	s-0.1,0.8-0.4,1.1l-6,6c-0.6,0.6-1.5,0.6-2.1,0s-0.6-1.5,0-2.1l3.4-3.4H13c-0.8,0-1.5-0.7-1.5-1.5s0.7-1.5,1.5-1.5h10.4l-3.4-3.4
	c-0.6-0.6-0.6-1.5,0-2.1S21.5,12.4,22.1,12.9z"/>
</svg>
