<?xml version="1.0" encoding="utf-8"?>
<!-- Generator: Adobe Illustrator 23.0.1, SVG Export Plug-In . SVG Version: 6.00 Build 0)  -->
<svg version="1.1" id="Слой_1" xmlns="http://www.w3.org/2000/svg" xmlns:xlink="http://www.w3.org/1999/xlink" x="0px" y="0px"
	 viewBox="0 0 16 16" style="enable-background:new 0 0 16 16;" xml:space="preserve">
<style type="text/css">
	.st0{fill:#9EABC1;}
</style>
<path class="st0" d="M12.6,15.4H3.3c-2.8,0-2.8-1.7-2.8-2.8V12c0-0.8,0.6-1.4,1.4-1.4h12c0.8,0,1.4,0.6,1.4,1.4v0.7
	C15.4,13.8,15.4,15.4,12.6,15.4z M2.1,12.1v0.6c0,1.1,0,1.3,1.3,1.3h9.3c1.3,0,1.3-0.2,1.3-1.3v-0.6H2.1z"/>
<path class="st0" d="M13.8,12.1H2.2c-0.4,0-0.8-0.3-0.8-0.8V8.7c0-2.9,2-5.4,4.8-5.9c0.4-0.1,0.8-0.1,1.3-0.1h1c0.4,0,0.9,0,1.3,0.1
	c2.8,0.6,4.8,3.1,4.8,5.9v2.7C14.6,11.7,14.2,12.1,13.8,12.1z M2.9,10.6h10.1V8.7c0-2.1-1.5-4-3.6-4.5c-0.3-0.1-0.6-0.1-1-0.1h-1
	c-0.3,0-0.7,0-1,0.1C4.5,4.6,2.9,6.5,2.9,8.7V10.6z"/>
<path class="st0" d="M9.6,4.2c-0.1,0-0.1,0-0.2,0c-0.3-0.1-0.6-0.1-1-0.1h-1c-0.3,0-0.7,0-1,0.1C6.2,4.3,5.8,4,5.7,3.7
	C5.6,3.4,5.6,3.2,5.6,3c0-1.3,1.1-2.4,2.4-2.4c1.3,0,2.4,1.1,2.4,2.4c0,0.2,0,0.4-0.1,0.7C10.2,4,9.9,4.2,9.6,4.2z M7.5,2.6h1
	c0.1,0,0.2,0,0.3,0C8.7,2.3,8.4,2.1,8,2.1c-0.4,0-0.7,0.2-0.8,0.5C7.3,2.6,7.4,2.6,7.5,2.6z"/>
<path class="st0" d="M10,8.1H6c-0.4,0-0.8-0.3-0.8-0.8S5.6,6.6,6,6.6h4c0.4,0,0.8,0.3,0.8,0.8S10.4,8.1,10,8.1z"/>
</svg>
