<?xml version="1.0" encoding="utf-8"?>
<!-- Generator: Adobe Illustrator 23.0.1, SVG Export Plug-In . SVG Version: 6.00 Build 0)  -->
<svg version="1.1" id="Слой_1" xmlns="http://www.w3.org/2000/svg" xmlns:xlink="http://www.w3.org/1999/xlink" x="0px" y="0px"
	 viewBox="0 0 19 19" style="enable-background:new 0 0 19 19;" xml:space="preserve">
<style type="text/css">
	.st0{fill:#1F242C;}
</style>
<path class="st0" d="M9.5,18.4c-4.9,0-8.9-4-8.9-8.9c0-4.9,4-8.9,8.9-8.9c4.9,0,8.9,4,8.9,8.9C18.4,14.4,14.4,18.4,9.5,18.4z
	 M9.5,2.6c-3.8,0-6.9,3.1-6.9,6.9c0,3.8,3.1,6.9,6.9,6.9c3.8,0,6.9-3.1,6.9-6.9C16.4,5.7,13.3,2.6,9.5,2.6z"/>
<path class="st0" d="M12.4,13c-0.2,0-0.4,0-0.5-0.1l-2.5-1.5C8.7,11,8.2,10,8.2,9.2V5.9c0-0.6,0.4-1,1-1s1,0.4,1,1v3.2
	c0,0.1,0.2,0.4,0.3,0.5l2.5,1.5c0.5,0.3,0.6,0.9,0.3,1.4C13.1,12.8,12.8,13,12.4,13z"/>
</svg>
