<svg width="25" height="20" viewBox="0 0 25 20" fill="none" xmlns="http://www.w3.org/2000/svg">
<path fill-rule="evenodd" clip-rule="evenodd" d="M10.3524 0.0780029C9.04277 0.0780029 7.77768 0.575968 6.79211 1.47941L2.15787 5.72739C-0.303922 7.98403 -0.303922 11.9959 2.15785 14.2525L6.79209 18.5005C7.77768 19.404 9.04277 19.9019 10.3524 19.9019H19.1341C22.1201 19.9019 24.5408 17.3661 24.5408 14.238V5.74198C24.5408 2.61385 22.1201 0.0780029 19.1341 0.0780029H10.3524ZM11.8571 5.6159C11.5023 5.25301 10.9271 5.25301 10.5722 5.6159C10.2174 5.97879 10.2174 6.56716 10.5722 6.93005L13.5641 9.98996L10.5722 13.0499C10.2174 13.4128 10.2174 14.0011 10.5722 14.364C10.9271 14.7269 11.5023 14.7269 11.8571 14.364L14.8491 11.3042L17.841 14.364C18.1958 14.7269 18.7711 14.7269 19.1259 14.364C19.4807 14.0011 19.4807 13.4128 19.1259 13.0499L16.1341 9.98996L19.1259 6.93005C19.4807 6.56716 19.4807 5.97879 19.1259 5.6159C18.7711 5.25301 18.1958 5.25301 17.841 5.6159L14.8491 8.67576L11.8571 5.6159Z" fill="#67707B"/>
</svg>
