<?xml version="1.0" encoding="utf-8"?>
<!-- Generator: Adobe Illustrator 23.0.1, SVG Export Plug-In . SVG Version: 6.00 Build 0)  -->
<svg version="1.1" id="Слой_1" xmlns="http://www.w3.org/2000/svg" xmlns:xlink="http://www.w3.org/1999/xlink" x="0px" y="0px"
	 viewBox="0 0 20 20" style="enable-background:new 0 0 20 20;" xml:space="preserve">
<style type="text/css">
	.st0{fill:#292D32;}
</style>
<path class="st0" d="M18,19.3c-0.3,0-0.6-0.1-0.9-0.4l-16-16c-0.5-0.5-0.5-1.3,0-1.8s1.3-0.5,1.8,0l16,16c0.5,0.5,0.5,1.3,0,1.8
	C18.6,19.1,18.3,19.3,18,19.3z"/>
<path class="st0" d="M2,19.3c-0.3,0-0.6-0.1-0.9-0.4c-0.5-0.5-0.5-1.3,0-1.8l16-16c0.5-0.5,1.3-0.5,1.8,0s0.5,1.3,0,1.8l-16,16
	C2.6,19.1,2.3,19.3,2,19.3z"/>
</svg>
