<?xml version="1.0" encoding="utf-8"?>
<!-- Generator: Adobe Illustrator 23.0.1, SVG Export Plug-In . SVG Version: 6.00 Build 0)  -->
<svg version="1.1" id="Слой_1" xmlns="http://www.w3.org/2000/svg" xmlns:xlink="http://www.w3.org/1999/xlink" x="0px" y="0px"
	 viewBox="0 0 22 22" style="enable-background:new 0 0 22 22;" xml:space="preserve">
<style type="text/css">
	.st0{fill:#292D32;}
</style>
<path class="st0" d="M14,21.8H8c-5.4,0-7.8-2.3-7.8-7.8V8c0-5.4,2.3-7.8,7.8-7.8h6c5.4,0,7.8,2.3,7.8,7.8v6
	C21.8,19.4,19.4,21.8,14,21.8z M8,1.8C3.4,1.8,1.8,3.4,1.8,8v6c0,4.6,1.6,6.3,6.3,6.3h6c4.6,0,6.3-1.6,6.3-6.3V8
	c0-4.6-1.6-6.3-6.3-6.3H8z"/>
<path class="st0" d="M11,14.3c-0.2,0-0.4-0.1-0.5-0.2l-3-3c-0.3-0.3-0.3-0.8,0-1.1s0.8-0.3,1.1,0l2.5,2.5l2.5-2.5
	c0.3-0.3,0.8-0.3,1.1,0s0.3,0.8,0,1.1l-3,3C11.4,14.2,11.2,14.3,11,14.3z"/>
<path class="st0" d="M11,14.3c-0.4,0-0.8-0.3-0.8-0.8v-8c0-0.4,0.3-0.8,0.8-0.8s0.8,0.3,0.8,0.8v8C11.8,13.9,11.4,14.3,11,14.3z"/>
<path class="st0" d="M11,17.2c-2.1,0-4.2-0.3-6.2-1c-0.4-0.1-0.6-0.6-0.5-0.9c0.1-0.4,0.6-0.6,0.9-0.5C9,16,13,16,16.8,14.8
	c0.4-0.1,0.8,0.1,0.9,0.5c0.1,0.4-0.1,0.8-0.5,0.9C15.2,16.9,13.1,17.2,11,17.2z"/>
</svg>
