<?xml version="1.0" encoding="utf-8"?>
<!-- Generator: Adobe Illustrator 23.0.1, SVG Export Plug-In . SVG Version: 6.00 Build 0)  -->
<svg version="1.1" id="Слой_1" xmlns="http://www.w3.org/2000/svg" xmlns:xlink="http://www.w3.org/1999/xlink" x="0px" y="0px"
	 viewBox="0 0 235 235" style="enable-background:new 0 0 235 235;" xml:space="preserve">
<style type="text/css">
	.st0{fill:#FFD600;}
</style>
<path class="st0" d="M177.4,235h-76v-3h76V235z M25.1,233.3C10.1,228.6,0,214.8,0,199v-32.4h3V199c0,14.5,9.3,27.1,23,31.5
	L25.1,233.3z M235,198.8h-3v-76h3V198.8z M3,90.6H0V36c0-7.5,2.3-14.8,6.7-20.9l2.4,1.7C5.1,22.5,3,29.1,3,36V90.6z M235,46.8h-3V36
	c0-18.2-14.8-33-33-33h-11V0h11c19.9,0,36,16.1,36,36V46.8z M112,3H36V0h76V3z"/>
</svg>
