<?xml version="1.0" encoding="utf-8"?>
<!-- Generator: Adobe Illustrator 23.0.1, SVG Export Plug-In . SVG Version: 6.00 Build 0)  -->
<svg version="1.1" id="Слой_1" xmlns="http://www.w3.org/2000/svg" xmlns:xlink="http://www.w3.org/1999/xlink" x="0px" y="0px"
	 viewBox="0 0 235 235" style="enable-background:new 0 0 235 235;" xml:space="preserve">
<style type="text/css">
	.st0{fill:#323232;}
</style>
<path class="st0" d="M78.5,234.8c-34.6,0-52.3-4.2-63.2-15.1C4.5,208.8,0.3,191.1,0.3,156.5c0-0.7,0.6-1.3,1.3-1.3s1.3,0.6,1.3,1.3
	c0,33.9,4,51.1,14.4,61.4c10.3,10.3,27.6,14.4,61.4,14.4c0.7,0,1.3,0.6,1.3,1.3S79.2,234.8,78.5,234.8z"/>
<path class="st0" d="M156.5,234.8c-0.7,0-1.3-0.6-1.3-1.3s0.6-1.3,1.3-1.3c33.9,0,51.1-4,61.4-14.4c10.3-10.3,14.4-27.6,14.4-61.4
	c0-0.7,0.6-1.3,1.3-1.3s1.3,0.6,1.3,1.3c0,34.6-4.2,52.3-15.1,63.2C208.8,230.5,191.1,234.8,156.5,234.8z"/>
<path class="st0" d="M233.5,79.8c-0.7,0-1.3-0.6-1.3-1.3c0-33.9-4-51.1-14.4-61.4C207.6,6.8,190.3,2.8,156.5,2.8
	c-0.7,0-1.3-0.6-1.3-1.3s0.6-1.3,1.3-1.3c34.6,0,52.3,4.2,63.2,15.1c10.9,10.9,15.1,28.6,15.1,63.2
	C234.8,79.2,234.2,79.8,233.5,79.8z"/>
<path class="st0" d="M1.5,79.8c-0.7,0-1.3-0.6-1.3-1.3c0-34.6,4.2-52.3,15.1-63.2C26.2,4.5,43.9,0.3,78.5,0.3c0.7,0,1.3,0.6,1.3,1.3
	s-0.6,1.3-1.3,1.3c-33.9,0-51.1,4-61.4,14.4C6.8,27.4,2.8,44.7,2.8,78.5C2.8,79.2,2.2,79.8,1.5,79.8z"/>
</svg>
