<?xml version="1.0" encoding="utf-8"?>
<!-- Generator: Adobe Illustrator 23.0.1, SVG Export Plug-In . SVG Version: 6.00 Build 0)  -->
<svg version="1.1" id="Слой_1" xmlns="http://www.w3.org/2000/svg" xmlns:xlink="http://www.w3.org/1999/xlink" x="0px" y="0px"
	 viewBox="0 0 22 22" style="enable-background:new 0 0 22 22;" xml:space="preserve">
<style type="text/css">
	.st0{fill:#9EABC1;}
</style>
<path class="st0" d="M10.7,14.4c-0.3,0-0.5-0.1-0.7-0.3c-0.4-0.4-0.4-1,0-1.4l1.6-1.6L10,9.4C9.6,9,9.6,8.4,10,8
	c0.4-0.4,1-0.4,1.4,0l2.3,2.3c0.2,0.2,0.3,0.4,0.3,0.7c0,0.3-0.1,0.5-0.3,0.7l-2.3,2.3C11.2,14.3,11,14.4,10.7,14.4z"/>
<path class="st0" d="M13,12.1H3.7c-0.6,0-1-0.4-1-1c0-0.6,0.4-1,1-1H13c0.6,0,1,0.4,1,1C14,11.6,13.5,12.1,13,12.1z"/>
<path class="st0" d="M11,19.3c-0.6,0-1-0.4-1-1s0.4-1,1-1c3.2,0,6.3-2,6.3-6.3S14.2,4.7,11,4.7c-0.6,0-1-0.4-1-1s0.4-1,1-1
	c4.9,0,8.3,3.4,8.3,8.3C19.3,15.9,15.9,19.3,11,19.3z"/>
</svg>
