<?xml version="1.0" encoding="utf-8"?>
<!-- Generator: Adobe Illustrator 23.0.1, SVG Export Plug-In . SVG Version: 6.00 Build 0)  -->
<svg version="1.1" id="Слой_1" xmlns="http://www.w3.org/2000/svg" xmlns:xlink="http://www.w3.org/1999/xlink" x="0px" y="0px"
	 viewBox="0 0 22 22" style="enable-background:new 0 0 22 22;" xml:space="preserve">
<style type="text/css">
	.st0{fill:#FF4762;}
</style>
<path class="st0" d="M14.2,21.3h-0.1c-4.4,0-6.6-1.7-6.9-5.7c0-0.4,0.3-0.8,0.7-0.8c0.4,0,0.8,0.3,0.8,0.7c0.3,3.1,1.8,4.3,5.5,4.3
	h0.1c4.1,0,5.5-1.4,5.5-5.5V7.8c0-4.1-1.4-5.5-5.5-5.5h-0.1c-3.7,0-5.2,1.2-5.5,4.4c0,0.4-0.4,0.7-0.8,0.7c-0.4,0-0.7-0.4-0.7-0.8
	c0.3-4,2.5-5.8,7-5.8h0.1c4.9,0,7,2.1,7,7v6.5C21.3,19.2,19.2,21.3,14.2,21.3z"/>
<path class="st0" d="M14,11.8H2.6c-0.4,0-0.8-0.3-0.8-0.8s0.3-0.8,0.8-0.8H14c0.4,0,0.8,0.3,0.8,0.8S14.4,11.8,14,11.8z"/>
<path class="st0" d="M4.9,15.1c-0.2,0-0.4-0.1-0.5-0.2L1,11.5c-0.1-0.1-0.2-0.3-0.2-0.5c0-0.2,0.1-0.4,0.2-0.5l3.4-3.4
	c0.3-0.3,0.8-0.3,1.1,0s0.3,0.8,0,1.1L2.6,11l2.8,2.8c0.3,0.3,0.3,0.8,0,1.1C5.2,15,5,15.1,4.9,15.1z"/>
</svg>
