<?xml version="1.0" encoding="utf-8"?>
<!-- Generator: Adobe Illustrator 23.0.1, SVG Export Plug-In . SVG Version: 6.00 Build 0)  -->
<svg version="1.1" id="Слой_1" xmlns="http://www.w3.org/2000/svg" xmlns:xlink="http://www.w3.org/1999/xlink" x="0px" y="0px"
	 viewBox="0 0 34 34" style="enable-background:new 0 0 34 34;" xml:space="preserve">
<style type="text/css">
	.st0{fill:#1E1E1E;}
</style>
<path class="st0" d="M24.9,13.5H9.1c-0.7,0-1.2-0.6-1.2-1.2S8.5,11,9.1,11h15.7c0.7,0,1.2,0.6,1.2,1.2S25.5,13.5,24.9,13.5z"/>
<path class="st0" d="M17,13.5c-0.7,0-1.2-0.6-1.2-1.2V9.6c0-0.7,0.6-1.2,1.2-1.2s1.2,0.6,1.2,1.2v2.6C18.2,12.9,17.7,13.5,17,13.5z"
	/>
<path class="st0" d="M9.1,25.7c-0.7,0-1.2-0.6-1.2-1.2s0.6-1.2,1.2-1.2c5.8,0,10.6-4.9,10.6-11c0-0.7,0.6-1.2,1.2-1.2
	s1.2,0.6,1.2,1.2C22.2,19.6,16.3,25.7,9.1,25.7z"/>
<path class="st0" d="M24.9,25.7c-3.1,0-6-1.6-8.2-4.4c-0.4-0.5-0.3-1.3,0.2-1.7c0.5-0.4,1.3-0.3,1.7,0.2c1.7,2.2,3.9,3.4,6.2,3.4
	c0.7,0,1.2,0.6,1.2,1.2C26.1,25.1,25.6,25.7,24.9,25.7z"/>
<path class="st0" d="M21.7,34h-9.5C3.7,34,0,30.3,0,21.7v-9.5C0,3.7,3.7,0,12.3,0h9.5C30.3,0,34,3.7,34,12.3v9.5
	C34,30.3,30.3,34,21.7,34z M12.3,2.5C5,2.5,2.5,5,2.5,12.3v9.5c0,7.2,2.6,9.8,9.8,9.8h9.5c7.2,0,9.8-2.6,9.8-9.8v-9.5
	c0-7.2-2.6-9.8-9.8-9.8H12.3z"/>
</svg>
