<?xml version="1.0" encoding="utf-8"?>
<!-- Generator: Adobe Illustrator 23.0.1, SVG Export Plug-In . SVG Version: 6.00 Build 0)  -->
<svg version="1.1" id="Слой_1" xmlns="http://www.w3.org/2000/svg" xmlns:xlink="http://www.w3.org/1999/xlink" x="0px" y="0px"
	 viewBox="0 0 34 34" style="enable-background:new 0 0 34 34;" xml:space="preserve">
<style type="text/css">
	.st0{fill:#1E1E1E;}
</style>
<path class="st0" d="M18.2,34c-0.3,0-0.5,0-0.8,0C8.6,33.6,1.2,26.5,0.5,17.8C0,10.3,4.3,3.3,11.3,0.4c2.1-0.9,3.1-0.1,3.5,0.3
	c0.5,0.5,1.1,1.5,0.2,3.4C14.3,5.8,14,7.5,14,9.3c0,7,5.8,12.8,12.8,13.1c1,0,2,0,3-0.2c2.1-0.4,3,0.5,3.3,1
	c0.3,0.5,0.7,1.7-0.6,3.5C29.3,31.3,23.9,34,18.2,34z M13,2.5c-0.1,0-0.4,0.1-0.7,0.2c-6,2.5-9.7,8.5-9.2,14.9c0,0,0,0,0,0
	C3.5,25,9.9,31.2,17.5,31.5c5.2,0.2,10.1-2.1,13.1-6.2c0.2-0.3,0.3-0.5,0.4-0.6c-0.1,0-0.4,0-0.7,0.1c-1.2,0.2-2.4,0.3-3.6,0.2
	c-8.4-0.3-15.2-7.3-15.2-15.6c0-2.2,0.4-4.3,1.3-6.3C12.9,2.8,12.9,2.6,13,2.5z"/>
</svg>
