<?xml version="1.0" encoding="utf-8"?>
<!-- Generator: Adobe Illustrator 23.0.1, SVG Export Plug-In . SVG Version: 6.00 Build 0)  -->
<svg version="1.1" id="Слой_1" xmlns="http://www.w3.org/2000/svg" xmlns:xlink="http://www.w3.org/1999/xlink" x="0px" y="0px"
	 viewBox="0 0 38 38" style="enable-background:new 0 0 38 38;" xml:space="preserve">
<style type="text/css">
	.st0{fill:#1E1E1E;}
</style>
<path class="st0" d="M25,32c-0.4,0-0.9,0-1.3-0.1c-0.8-0.1-1.8-0.2-2.7-0.5l-2.7-0.6c-7.2-1.7-9.7-5.7-8-12.9l1.6-6.6
	c0.4-1.5,0.8-2.7,1.3-3.8c2.7-5.7,8-5.2,11.7-4.3l2.6,0.6c3.7,0.9,6.1,2.3,7.4,4.4c1.3,2.1,1.5,4.8,0.6,8.6l0,0L34,23.4
	C32.6,29.3,29.8,32,25,32z M20.8,5.2c-2.6,0-4.3,1.1-5.4,3.4c-0.4,0.8-0.8,1.9-1.1,3.2l-1.6,6.6c-1.4,5.9,0.2,8.5,6.2,9.9l2.7,0.6
	c0.9,0.2,1.7,0.3,2.4,0.4c4.3,0.4,6.4-1.4,7.6-6.6l1.6-6.6c0.7-3,0.6-5.2-0.3-6.7C31.8,8.1,30,7,26.9,6.3l-2.6-0.6
	C22.9,5.4,21.8,5.2,20.8,5.2z M34.3,16.5L34.3,16.5L34.3,16.5z"/>
<path class="st0" d="M13.3,35.3c-4.1,0-6.8-2.5-8.5-7.6l-2-6.3c-1.1-3.6-1.2-6.2-0.1-8.4C3.8,10.9,6,9.3,9.5,8.2L12,7.4
	c0.8-0.3,1.4-0.4,2-0.5c0.5-0.1,0.9,0.1,1.2,0.5c0.3,0.4,0.3,0.9,0.1,1.3c-0.4,0.8-0.8,1.9-1.1,3.2l-1.6,6.6
	c-1.4,5.9,0.2,8.5,6.2,9.9l2.7,0.6c0.9,0.2,1.7,0.3,2.4,0.4c0.5,0,1,0.4,1.1,0.9c0.1,0.5-0.1,1.1-0.5,1.4c-1,0.7-2.4,1.3-4,1.9
	L18,34.4C16.3,35,14.7,35.3,13.3,35.3z M12.2,9.9l-1.9,0.6c-2.9,0.9-4.6,2.1-5.4,3.6c-0.8,1.5-0.7,3.6,0.2,6.5l2,6.3
	c1.8,5.6,4.5,7,10.1,5.1l2.5-0.8c0,0,0,0,0.1,0l-1.5-0.3c-7.2-1.7-9.7-5.7-8-12.9l1.6-6.6C12,10.8,12.1,10.4,12.2,9.9z"/>
<path class="st0" d="M27.7,16.7c-0.1,0-0.2,0-0.3,0l-7.7-1.9c-0.7-0.2-1.1-0.8-0.9-1.5c0.2-0.7,0.8-1.1,1.5-0.9l7.7,1.9
	c0.7,0.2,1.1,0.8,0.9,1.5C28.8,16.3,28.3,16.7,27.7,16.7z"/>
<path class="st0" d="M23.1,22.1c-0.1,0-0.2,0-0.3,0l-4.6-1.2c-0.7-0.2-1.1-0.9-0.9-1.5c0.2-0.7,0.9-1.1,1.5-0.9l4.6,1.2
	c0.7,0.2,1.1,0.9,0.9,1.5C24.1,21.7,23.6,22.1,23.1,22.1z"/>
</svg>
