<?xml version="1.0" encoding="utf-8"?>
<!-- Generator: Adobe Illustrator 23.0.1, SVG Export Plug-In . SVG Version: 6.00 Build 0)  -->
<svg version="1.1" id="Слой_1" xmlns="http://www.w3.org/2000/svg" xmlns:xlink="http://www.w3.org/1999/xlink" x="0px" y="0px"
	 viewBox="0 0 27 27" style="enable-background:new 0 0 27 27;" xml:space="preserve">
<style type="text/css">
	.st0{fill:#FFFFFF;}
</style>
<path class="st0" d="M7.7,26.9c-1.2,0-2.4-0.3-3.4-0.9c-2.4-1.4-3.6-4.1-3.6-7.6V8.6C0.7,5.1,2,2.3,4.3,1c2.4-1.4,5.4-1.2,8.6,0.6
	l8.5,4.9c3.1,1.8,4.9,4.3,4.9,7c0,2.7-1.7,5.2-4.9,7l-8.5,4.9C11.1,26.4,9.4,26.9,7.7,26.9z M7.7,3.1C7,3.1,6.4,3.3,5.8,3.6
	C4.4,4.4,3.7,6.2,3.7,8.6v9.7c0,2.4,0.8,4.2,2.2,5c1.4,0.8,3.4,0.6,5.6-0.7l8.5-4.9c2.2-1.2,3.4-2.8,3.4-4.4c0-1.6-1.2-3.2-3.4-4.4
	l-8.5-4.9C10.1,3.5,8.8,3.1,7.7,3.1z"/>
</svg>
