<?xml version="1.0" encoding="utf-8"?>
<!-- Generator: Adobe Illustrator 23.0.1, SVG Export Plug-In . SVG Version: 6.00 Build 0)  -->
<svg version="1.1" id="Слой_1" xmlns="http://www.w3.org/2000/svg" xmlns:xlink="http://www.w3.org/1999/xlink" x="0px" y="0px"
	 viewBox="0 0 13 18" style="enable-background:new 0 0 13 18;" xml:space="preserve">
<style type="text/css">
	.st0{fill:#9EABC1;}
</style>
<path class="st0" d="M6.7,17.3c-1.3,0-2.3-1-2.3-2.3v-0.1c-1.2-0.3-2.1-1.4-2.1-2.7V7.3c0-1.2,0.5-2.3,1.3-3.1c0-0.1,0-0.3,0-0.4
	c0-0.2,0-0.4,0-0.5L2.9,2.5H1.4c-0.4,0-0.7-0.3-0.7-0.7c0-0.4,0.3-0.7,0.7-0.7h1.7c0.2,0,0.4,0.1,0.5,0.2L4.3,2
	c0.2-0.3,0.5-0.6,0.9-0.8c0.5-0.3,1-0.4,1.6-0.4c1,0,1.9,0.5,2.5,1.3l0.6-0.6c0.1-0.1,0.3-0.2,0.5-0.2H12c0.4,0,0.7,0.3,0.7,0.7
	c0,0.4-0.3,0.7-0.7,0.7h-1.5L9.8,3.3c0,0.2,0,0.3,0.1,0.5c0,0.1,0,0.3,0,0.4h0c0.8,0.8,1.3,1.9,1.3,3.1v4.9c0,1.3-0.9,2.4-2.1,2.7v0
	C9,16.3,8,17.3,6.7,17.3L6.7,17.3z M6.7,11.5c-0.5,0-0.9,0.4-0.9,0.9V15c0,0.5,0.4,0.9,0.9,0.9s0.9-0.4,0.9-0.9v-2.6
	C7.7,11.9,7.2,11.5,6.7,11.5z M6.7,10.1c1.3,0,2.3,1,2.3,2.3v1.1c0.4-0.3,0.7-0.8,0.7-1.3V7.3c0-0.6-0.2-1.2-0.5-1.7
	C8.9,5.9,8.6,6.2,8.3,6.5c-0.5,0.3-1,0.4-1.5,0.4c-1,0-1.9-0.5-2.5-1.3C3.9,6.1,3.7,6.7,3.7,7.3v4.9c0,0.5,0.3,1,0.7,1.3l0-1.1
	C4.4,11.1,5.5,10.1,6.7,10.1L6.7,10.1z M6.7,2.1C5.8,2.1,5,2.9,5,3.8s0.8,1.7,1.7,1.7s1.7-0.8,1.7-1.7S7.7,2.1,6.7,2.1z"/>
</svg>
