<?xml version="1.0" encoding="utf-8"?>
<!-- Generator: Adobe Illustrator 23.0.1, SVG Export Plug-In . SVG Version: 6.00 Build 0)  -->
<svg version="1.1" id="Слой_1" xmlns="http://www.w3.org/2000/svg" xmlns:xlink="http://www.w3.org/1999/xlink" x="0px" y="0px"
	 viewBox="0 0 26 26" style="enable-background:new 0 0 26 26;" xml:space="preserve">
<style type="text/css">
	.st0{fill:#FFFFFF;}
</style>
<path class="st0" d="M16,25.3c-0.4,0-0.8-0.3-1-0.7c-0.1-0.5,0.2-1.1,0.7-1.2c4.7-1.2,7.9-5.5,7.9-10.3c0-5.9-4.8-10.7-10.7-10.7
	C8.2,2.3,5,5,3.4,6.8h3.2c0.6,0,1,0.4,1,1s-0.4,1-1,1H1.3c-0.1,0-0.2,0-0.3,0c-0.1,0-0.2-0.1-0.3-0.2C0.6,8.5,0.5,8.4,0.5,8.3
	C0.4,8.2,0.4,8.1,0.3,7.9c0,0,0-0.1,0-0.1V2.5c0-0.6,0.4-1,1-1s1,0.4,1,1V5c2-2,5.5-4.6,10.7-4.6C20,0.3,25.7,6,25.7,13
	c0,5.7-3.9,10.8-9.4,12.2C16.1,25.3,16.1,25.3,16,25.3z"/>
<path class="st0" d="M13,25.7l-0.4,0c-0.6,0-1-0.5-1-1c0-0.6,0.5-1,1-1l0.3,0c0.6,0,1,0.4,1,1S13.6,25.7,13,25.7z M9.7,25.2
	c-0.1,0-0.2,0-0.3,0c-1-0.3-2-0.7-3-1.3c-0.5-0.3-0.6-0.9-0.3-1.4C6.4,22,7,21.9,7.5,22.1c0.8,0.5,1.6,0.8,2.5,1.1
	c0.5,0.2,0.8,0.7,0.7,1.2C10.5,24.9,10.1,25.2,9.7,25.2z M4.6,22.1c-0.3,0-0.5-0.1-0.7-0.3C3.2,21,2.5,20.2,2,19.2
	c-0.3-0.5-0.1-1.1,0.4-1.4c0.5-0.3,1.1-0.1,1.4,0.4c0.5,0.8,1,1.5,1.6,2.2c0.4,0.4,0.4,1,0,1.4C5.1,22,4.9,22.1,4.6,22.1z M1.7,17
	c-0.4,0-0.8-0.3-1-0.7c-0.3-1-0.4-2.1-0.4-3.2c0-0.6,0.4-1,1-1s1,0.4,1,1c0,0.9,0.1,1.8,0.3,2.7c0.1,0.5-0.2,1.1-0.7,1.2
	C1.9,17,1.8,17,1.7,17z"/>
</svg>
