<?xml version="1.0" encoding="utf-8"?>
<!-- Generator: Adobe Illustrator 23.0.1, SVG Export Plug-In . SVG Version: 6.00 Build 0)  -->
<svg version="1.1" id="Слой_1" xmlns="http://www.w3.org/2000/svg" xmlns:xlink="http://www.w3.org/1999/xlink" x="0px" y="0px"
	 viewBox="0 0 32 32" style="enable-background:new 0 0 32 32;" xml:space="preserve">
<style type="text/css">
	.st0{fill:#292D32;}
</style>
<path class="st0" d="M25.9,15.7h-4.6c-0.6,0-1-0.4-1-1V5.3c0-2,1.7-3.7,3.7-3.7c1.7,0,3.3,0.7,4.5,1.9c1.2,1.2,1.9,2.8,1.9,4.5v3.2
	C30.3,13.9,28.5,15.7,25.9,15.7z M22.3,13.7h3.6c1.6,0,2.4-0.9,2.4-2.4V8c0-1.1-0.5-2.2-1.3-3.1c-0.8-0.8-1.9-1.3-3-1.3
	c-0.9,0-1.7,0.8-1.7,1.7V13.7z"/>
<path class="st0" d="M12,31.1c-0.6,0-1.2-0.2-1.7-0.7l-2.2-2.2c-0.1-0.1-0.3-0.1-0.5,0l-2.3,1.7c-0.7,0.5-1.6,0.6-2.4,0.2
	c-0.8-0.4-1.3-1.2-1.3-2.1V8C1.7,4,4,1.7,8,1.7h16c0.6,0,1,0.4,1,1s-0.4,1-1,1c-0.9,0-1.7,0.7-1.7,1.7V28c0,0.9-0.5,1.7-1.3,2.1
	c-0.8,0.4-1.7,0.3-2.4-0.2l-2.3-1.7c-0.1-0.1-0.3-0.1-0.4,0l-2.2,2.2C13.2,30.9,12.6,31.1,12,31.1z M7.9,26.1c0.6,0,1.2,0.2,1.7,0.7
	l2.2,2.2c0.2,0.2,0.3,0.2,0.5,0l2.2-2.2c0.8-0.8,2.1-0.9,3-0.2l2.3,1.7c0.1,0.1,0.3,0.1,0.4,0c0.1,0,0.2-0.1,0.2-0.3V5.3
	c0-0.6,0.1-1.2,0.4-1.7H8C5,3.7,3.7,5,3.7,8v20c0,0.2,0.1,0.3,0.2,0.3c0.1,0,0.2,0.1,0.3,0l2.3-1.7C6.9,26.2,7.4,26.1,7.9,26.1z"/>
</svg>
