<svg width="56" height="46" viewBox="0 0 56 46" fill="none" xmlns="http://www.w3.org/2000/svg">
<path fill-rule="evenodd" clip-rule="evenodd" d="M23.207 0C20.1802 0 17.2562 1.15549 14.9783 3.25186L4.26737 13.109C-1.42245 18.3454 -1.42245 27.6546 4.26734 32.8909L14.9783 42.7481C17.2562 44.8445 20.1802 46 23.207 46H43.5039C50.4053 46 56 40.1157 56 32.8572V13.1429C56 5.88426 50.4053 0 43.5039 0H23.207ZM26.6848 12.8503C25.8647 12.0082 24.5353 12.0082 23.7152 12.8503C22.895 13.6924 22.895 15.0576 23.7152 15.8997L30.63 23L23.7152 30.1004C22.895 30.9425 22.895 32.3075 23.7152 33.1496C24.5353 33.9917 25.8647 33.9917 26.6848 33.1496L33.6 26.0495L40.5152 33.1496C41.3353 33.9917 42.6647 33.9917 43.4848 33.1496C44.305 32.3075 44.305 30.9425 43.4848 30.1004L36.57 23L43.4848 15.8997C44.305 15.0576 44.305 13.6924 43.4848 12.8503C42.6647 12.0082 41.3353 12.0082 40.5152 12.8503L33.6 19.9505L26.6848 12.8503Z" fill="#67707B"/>
</svg>
