<?xml version="1.0" encoding="utf-8"?>
<!-- Generator: Adobe Illustrator 23.0.1, SVG Export Plug-In . SVG Version: 6.00 Build 0)  -->
<svg version="1.1" id="Слой_1" xmlns="http://www.w3.org/2000/svg" xmlns:xlink="http://www.w3.org/1999/xlink" x="0px" y="0px"
	 viewBox="0 0 30 34" style="enable-background:new 0 0 30 34;" xml:space="preserve">
<style type="text/css">
	.st0{fill:#29CF8E;}
</style>
<path class="st0" d="M15,34C6.8,34,0.1,27.3,0.1,19.1c0-3,0.9-5.8,2.5-8.3c0.4-0.6,1.2-0.7,1.7-0.3c0.6,0.4,0.7,1.2,0.3,1.7
	c-1.4,2.1-2.1,4.4-2.1,6.9c0,6.8,5.6,12.4,12.4,12.4c6.8,0,12.4-5.6,12.4-12.4c0-6.9-5.6-12.4-12.4-12.4c-1.4,0-2.8,0.2-4.2,0.6
	c-0.7,0.2-1.4-0.2-1.5-0.8c-0.2-0.7,0.2-1.4,0.8-1.5c1.6-0.5,3.3-0.7,4.9-0.7c8.2,0,14.9,6.7,14.9,14.9S23.2,34,15,34z"/>
<path class="st0" d="M8.5,7.7c-0.3,0-0.6-0.1-0.8-0.3C7.2,7,7.1,6.2,7.6,5.7l4.6-5.2c0.5-0.5,1.2-0.6,1.8-0.1s0.6,1.2,0.1,1.8
	L9.4,7.3C9.2,7.6,8.8,7.7,8.5,7.7z"/>
<path class="st0" d="M13.8,11.6c-0.3,0-0.5-0.1-0.7-0.2L7.8,7.5C7.2,7.1,7.1,6.3,7.5,5.7c0.4-0.6,1.2-0.7,1.7-0.3l5.3,3.9
	c0.6,0.4,0.7,1.2,0.3,1.7C14.6,11.4,14.2,11.6,13.8,11.6z"/>
</svg>
