<?xml version="1.0" encoding="utf-8"?>
<!-- Generator: Adobe Illustrator 23.0.1, SVG Export Plug-In . SVG Version: 6.00 Build 0)  -->
<svg version="1.1" id="Слой_1" xmlns="http://www.w3.org/2000/svg" xmlns:xlink="http://www.w3.org/1999/xlink" x="0px" y="0px"
	 viewBox="0 0 28 28" style="enable-background:new 0 0 28 28;" xml:space="preserve">
<style type="text/css">
	.st0{fill:#292D32;}
</style>
<path class="st0" d="M13.4,25.8c-6.8,0-12.3-5.5-12.3-12.3c0-6.8,5.5-12.3,12.3-12.3c6.8,0,12.3,5.5,12.3,12.3
	C25.8,20.2,20.2,25.8,13.4,25.8z M13.4,3.6C8,3.6,3.6,8,3.6,13.4s4.4,9.8,9.8,9.8s9.8-4.4,9.8-9.8S18.8,3.6,13.4,3.6z"/>
<path class="st0" d="M25.7,26.9c-0.3,0-0.6-0.1-0.9-0.4l-2.3-2.3c-0.5-0.5-0.5-1.3,0-1.8s1.3-0.5,1.8,0l2.3,2.3
	c0.5,0.5,0.5,1.3,0,1.8C26.3,26.8,26,26.9,25.7,26.9z"/>
</svg>
