<?xml version="1.0" encoding="utf-8"?>
<!-- Generator: Adobe Illustrator 23.0.1, SVG Export Plug-In . SVG Version: 6.00 Build 0)  -->
<svg version="1.1" id="Слой_1" xmlns="http://www.w3.org/2000/svg" xmlns:xlink="http://www.w3.org/1999/xlink" x="0px" y="0px"
	 viewBox="0 0 34 32" style="enable-background:new 0 0 34 32;" xml:space="preserve">
<style type="text/css">
	.st0{fill:#1E1E1E;}
</style>
<path class="st0" d="M17,21.9c-3.3,0-5.9-2.7-5.9-5.9s2.7-5.9,5.9-5.9s5.9,2.7,5.9,5.9S20.3,21.9,17,21.9z M17,12.5
	c-1.9,0-3.5,1.6-3.5,3.5s1.6,3.5,3.5,3.5s3.5-1.6,3.5-3.5S18.9,12.5,17,12.5z"/>
<path class="st0" d="M22,32c-1.3,0-2.6-0.7-3.3-1.9l-0.2-0.3c-0.4-0.8-1-1.2-1.5-1.2c0,0,0,0,0,0c-0.5,0-1.1,0.4-1.5,1.2l-0.2,0.3
	c-1.1,1.8-3.5,2.5-5.3,1.4l-2.7-1.5c-1-0.6-1.7-1.5-2-2.5c-0.3-1.1-0.1-2.2,0.4-3.2c0.5-0.8,0.6-1.5,0.3-1.9
	c-0.3-0.4-0.9-0.7-1.8-0.7c-2.3,0-4.2-1.9-4.2-4.2v-2.8c0-2.3,1.9-4.2,4.2-4.2c0.9,0,1.6-0.3,1.8-0.7c0.3-0.4,0.1-1.1-0.3-1.9
	c-0.6-1-0.7-2.1-0.4-3.2c0.3-1.1,1-2,2-2.5l2.7-1.5c1.8-1.1,4.2-0.5,5.2,1.4l0.2,0.3C16,3,16.5,3.4,17,3.4c0,0,0,0,0,0
	c0.5,0,1.1-0.4,1.5-1.2l0.2-0.3c1.1-1.8,3.5-2.5,5.3-1.4l2.7,1.5c1,0.6,1.7,1.5,2,2.5c0.3,1.1,0.1,2.2-0.4,3.2
	c-0.5,0.8-0.6,1.5-0.3,1.9c0.3,0.4,0.9,0.7,1.8,0.7c2.3,0,4.2,1.9,4.2,4.2v2.8c0,2.3-1.9,4.2-4.2,4.2c-0.9,0-1.6,0.3-1.8,0.7
	c-0.3,0.4-0.1,1.1,0.3,1.9c1.2,2,0.5,4.6-1.6,5.7l-2.7,1.5C23.3,31.8,22.7,32,22,32z M17,26.1C17,26.1,17,26.1,17,26.1
	c1.4,0,2.7,0.9,3.6,2.5l0.2,0.3c0.2,0.3,0.5,0.5,0.8,0.6c0.4,0.1,0.7,0,1-0.1l2.7-1.6c0.4-0.2,0.7-0.6,0.8-1
	c0.1-0.4,0.1-0.9-0.2-1.3c-0.9-1.6-1-3.2-0.3-4.4c0.7-1.2,2.1-1.9,3.9-1.9c1,0,1.7-0.8,1.7-1.7v-2.8c0-1-0.8-1.7-1.7-1.7
	c-1.8,0-3.2-0.7-3.9-1.9c-0.7-1.2-0.6-2.8,0.3-4.4c0.2-0.4,0.3-0.9,0.2-1.3c-0.1-0.4-0.4-0.8-0.8-1l-2.7-1.5c-0.3-0.2-0.7-0.2-1-0.1
	c-0.4,0.1-0.7,0.3-0.9,0.6l-0.2,0.3C19.7,5,18.4,5.9,17,5.9c0,0,0,0,0,0c-1.4,0-2.7-0.9-3.6-2.5l-0.2-0.3c-0.2-0.3-0.5-0.5-0.8-0.6
	c-0.4-0.1-0.7,0-1,0.1L8.6,4.2c-0.4,0.2-0.7,0.6-0.8,1C7.7,5.7,7.7,6.2,8,6.6C8.9,8.1,9,9.7,8.3,11c-0.7,1.2-2.1,1.9-3.9,1.9
	c-1,0-1.7,0.8-1.7,1.7v2.8c0,1,0.8,1.7,1.7,1.7c1.8,0,3.2,0.7,3.9,1.9C9,22.3,8.9,23.9,8,25.4c-0.2,0.4-0.3,0.9-0.2,1.3
	c0.1,0.4,0.4,0.8,0.8,1l2.7,1.5c0.7,0.4,1.5,0.2,1.9-0.5l0.2-0.3C14.3,27,15.6,26.1,17,26.1z"/>
</svg>
