<?xml version="1.0" encoding="utf-8"?>
<!-- Generator: Adobe Illustrator 23.0.1, SVG Export Plug-In . SVG Version: 6.00 Build 0)  -->
<svg version="1.1" id="Слой_1" xmlns="http://www.w3.org/2000/svg" xmlns:xlink="http://www.w3.org/1999/xlink" x="0px" y="0px"
	 viewBox="0 0 38 38" style="enable-background:new 0 0 38 38;" xml:space="preserve">
<style type="text/css">
	.st0{fill:#1E1E1E;}
</style>
<path class="st0" d="M19,30.5c-6.4,0-11.5-5.2-11.5-11.5S12.6,7.5,19,7.5S30.5,12.6,30.5,19S25.4,30.5,19,30.5z M19,10
	c-5,0-9,4.1-9,9c0,5,4.1,9,9,9c5,0,9-4.1,9-9C28,14,24,10,19,10z"/>
<path class="st0" d="M19,36.1c-0.7,0-1.3-0.6-1.3-1.3v-0.1c0-0.7,0.6-1.3,1.3-1.3s1.3,0.6,1.3,1.3v0.1C20.3,35.5,19.7,36.1,19,36.1z
	 M30.3,31.6c-0.3,0-0.6-0.1-0.9-0.4L29.2,31c-0.5-0.5-0.5-1.3,0-1.8s1.3-0.5,1.8,0l0.2,0.2c0.5,0.5,0.5,1.3,0,1.8
	C30.9,31.4,30.6,31.6,30.3,31.6z M7.7,31.6c-0.3,0-0.6-0.1-0.9-0.4c-0.2-0.2-0.4-0.6-0.4-0.9c0-0.3,0.1-0.6,0.4-0.9L7,29.2
	c0.5-0.5,1.3-0.5,1.8,0c0.2,0.2,0.4,0.6,0.4,0.9c0,0.3-0.1,0.6-0.4,0.9l-0.2,0.2C8.3,31.4,8,31.6,7.7,31.6z M34.8,20.3h-0.1
	c-0.7,0-1.3-0.6-1.3-1.3s0.6-1.3,1.3-1.3h0.1c0.7,0,1.3,0.6,1.3,1.3S35.5,20.3,34.8,20.3z M3.3,20.3H3.2c-0.7,0-1.3-0.6-1.3-1.3
	s0.6-1.3,1.3-1.3h0.1c0.7,0,1.3,0.6,1.3,1.3S4,20.3,3.3,20.3z M30.1,9.2c-0.3,0-0.6-0.1-0.9-0.4c-0.2-0.2-0.4-0.6-0.4-0.9
	c0-0.3,0.1-0.6,0.4-0.9l0.2-0.2c0.5-0.5,1.3-0.5,1.8,0c0.2,0.2,0.4,0.6,0.4,0.9c0,0.3-0.1,0.6-0.4,0.9L31,8.8
	C30.7,9,30.4,9.2,30.1,9.2z M7.9,9.2C7.6,9.2,7.3,9,7,8.8L6.8,8.6C6.6,8.3,6.4,8,6.4,7.7s0.1-0.6,0.4-0.9c0.5-0.5,1.3-0.5,1.8,0
	L8.8,7C9,7.3,9.2,7.6,9.2,7.9S9,8.5,8.8,8.8S8.2,9.2,7.9,9.2z M19,4.5c-0.7,0-1.3-0.6-1.3-1.3V3.2c0-0.7,0.6-1.3,1.3-1.3
	s1.3,0.6,1.3,1.3v0.1C20.3,4,19.7,4.5,19,4.5z"/>
</svg>
