<?xml version="1.0" encoding="utf-8"?>
<!-- Generator: Adobe Illustrator 23.0.1, SVG Export Plug-In . SVG Version: 6.00 Build 0)  -->
<svg version="1.1" id="Слой_1" xmlns="http://www.w3.org/2000/svg" xmlns:xlink="http://www.w3.org/1999/xlink" x="0px" y="0px"
	 viewBox="0 0 31 34" style="enable-background:new 0 0 31 34;" xml:space="preserve">
<style type="text/css">
	.st0{fill:#1E1E1E;}
</style>
<path class="st0" d="M1.3,8.8c-0.6,0-1.2-0.5-1.2-1.1C0,7,0.5,6.3,1.2,6.3L4.4,6c3.1-0.3,6.3-0.5,9.5-0.5c5.2,0,10.6,0.3,15.9,0.8
	C30.5,6.3,31,7,30.9,7.6c-0.1,0.7-0.7,1.2-1.4,1.1C24.3,8.2,19.1,8,13.9,8c-3.1,0-6.2,0.2-9.2,0.5L1.4,8.8C1.4,8.8,1.4,8.8,1.3,8.8z
	"/>
<path class="st0" d="M21,7.2c-0.6,0-1.1-0.4-1.2-1l-0.3-2c-0.2-1.4-0.3-1.6-1.9-1.6h-4.1c-1.6,0-1.6,0.2-1.9,1.6l-0.3,2.1
	c-0.1,0.7-0.8,1.1-1.4,1C9.1,7,8.6,6.4,8.8,5.7l0.3-2.1C9.4,2.1,9.7,0,13.4,0h4.1c3.7,0,4.1,2.2,4.3,3.7l0.3,2
	c0.1,0.7-0.3,1.3-1,1.4C21.2,7.2,21.1,7.2,21,7.2z"/>
<path class="st0" d="M20.6,34H10.4c-5.6,0-5.8-3.1-6-5.6l-1-15.9c0-0.7,0.5-1.3,1.2-1.3c0.7,0,1.3,0.5,1.3,1.2l1,15.9
	c0.2,2.4,0.2,3.2,3.5,3.2h10.1c3.2,0,3.3-0.8,3.5-3.2l1-15.9c0-0.7,0.6-1.2,1.3-1.2c0.7,0,1.2,0.6,1.2,1.3l-1,15.9
	C26.3,30.9,26.1,34,20.6,34z"/>
<path class="st0" d="M18.1,25.3h-5.2c-0.7,0-1.2-0.6-1.2-1.2s0.6-1.2,1.2-1.2h5.2c0.7,0,1.2,0.6,1.2,1.2S18.8,25.3,18.1,25.3z"/>
<path class="st0" d="M19.4,19h-7.9c-0.7,0-1.2-0.6-1.2-1.2c0-0.7,0.6-1.2,1.2-1.2h7.9c0.7,0,1.2,0.6,1.2,1.2
	C20.7,18.5,20.1,19,19.4,19z"/>
</svg>
