<?xml version="1.0" encoding="utf-8"?>
<!-- Generator: Adobe Illustrator 23.0.1, SVG Export Plug-In . SVG Version: 6.00 Build 0)  -->
<svg version="1.1" id="Слой_1" xmlns="http://www.w3.org/2000/svg" xmlns:xlink="http://www.w3.org/1999/xlink" x="0px" y="0px"
	 viewBox="0 0 30 30" style="enable-background:new 0 0 30 30;" xml:space="preserve">
<style type="text/css">
	.st0{fill:#1F242C;}
</style>
<path class="st0" d="M15,0C6.7,0,0,6.7,0,15c0,5.8,3.3,10.8,8.1,13.3l0.5-10.2c0-0.7-0.4-1.4-1-1.7c-1.2-0.7-2.1-2.1-2.1-3.7
	C5.5,9.4,7.2,6,9.4,6s3.9,3.4,3.9,6.7c0,1.6-0.8,3-2.1,3.7c-0.6,0.4-1,1-1,1.7l0.5,11.3c1.4,0.4,2.8,0.6,4.3,0.6
	c1.2,0,2.3-0.1,3.4-0.4l0.5-11.5c0-0.7-0.3-1.4-1-1.7c-1.2-0.7-2-2-1.9-3.4l0.3-6.3c0-0.4,0.3-0.7,0.7-0.7c0.4,0,0.7,0.3,0.7,0.7
	l-0.1,5.4c0,0.4,0.3,0.7,0.7,0.7c0.4,0,0.7-0.3,0.7-0.7l0.1-5.6c0-0.3,0.3-0.6,0.6-0.6c0.3,0,0.6,0.3,0.6,0.6l0.1,5.6
	c0,0.4,0.3,0.7,0.7,0.7c0.4,0,0.7-0.3,0.7-0.7l-0.1-5.4c0-0.4,0.3-0.8,0.7-0.8c0.4,0,0.7,0.3,0.7,0.7l0.3,6.2
	c0.1,1.5-0.7,2.8-1.9,3.4c-0.6,0.3-1,1-1,1.7L21,28.7c5.3-2.3,9-7.6,9-13.7C30,6.7,23.3,0,15,0z"/>
</svg>
