<?xml version="1.0" encoding="utf-8"?>
<!-- Generator: Adobe Illustrator 23.0.1, SVG Export Plug-In . SVG Version: 6.00 Build 0)  -->
<svg version="1.1" id="Слой_1" xmlns="http://www.w3.org/2000/svg" xmlns:xlink="http://www.w3.org/1999/xlink" x="0px" y="0px"
	 viewBox="0 0 26 26" style="enable-background:new 0 0 26 26;" xml:space="preserve">
<style type="text/css">
	.st0{fill:#292D32;}
</style>
<path class="st0" d="M19.6,10.4h-6.1c-0.6,0-1-0.4-1-1s0.4-1,1-1h6.1c0.6,0,1,0.4,1,1S20.1,10.4,19.6,10.4z"/>
<path class="st0" d="M7.3,11.2c-0.3,0-0.5-0.1-0.7-0.3l-0.9-0.9c-0.4-0.4-0.4-1,0-1.4s1-0.4,1.4,0l0.2,0.2l1.9-1.9
	c0.4-0.4,1-0.4,1.4,0s0.4,1,0,1.4L8,10.9C7.8,11.1,7.6,11.2,7.3,11.2z"/>
<path class="st0" d="M19.6,18.5h-6.1c-0.6,0-1-0.4-1-1s0.4-1,1-1h6.1c0.6,0,1,0.4,1,1S20.1,18.5,19.6,18.5z"/>
<path class="st0" d="M7.3,19.4c-0.3,0-0.5-0.1-0.7-0.3l-0.9-0.9c-0.4-0.4-0.4-1,0-1.4s1-0.4,1.4,0L7.3,17l1.9-1.9
	c0.4-0.4,1-0.4,1.4,0s0.4,1,0,1.4L8,19.1C7.8,19.3,7.6,19.4,7.3,19.4z"/>
<path class="st0" d="M16.5,25.7h-7c-6.4,0-9.2-2.7-9.2-9.2v-7c0-6.4,2.7-9.2,9.2-9.2h7c6.4,0,9.2,2.7,9.2,9.2v7
	C25.7,22.9,22.9,25.7,16.5,25.7z M9.5,2.3c-5.3,0-7.2,1.9-7.2,7.2v7c0,5.3,1.9,7.2,7.2,7.2h7c5.3,0,7.2-1.9,7.2-7.2v-7
	c0-5.3-1.9-7.2-7.2-7.2H9.5z"/>
</svg>
