<?xml version="1.0" encoding="utf-8"?>
<!-- Generator: Adobe Illustrator 23.0.1, SVG Export Plug-In . SVG Version: 6.00 Build 0)  -->
<svg version="1.1" id="Слой_1" xmlns="http://www.w3.org/2000/svg" xmlns:xlink="http://www.w3.org/1999/xlink" x="0px" y="0px"
	 viewBox="0 0 28 22" style="enable-background:new 0 0 28 22;" xml:space="preserve">
<style type="text/css">
	.st0{fill:#1F242C;}
</style>
<path class="st0" d="M18.8,22H6.5c-0.7,0-1.2-0.5-1.2-1.2c0-0.7,0.5-1.2,1.2-1.2h12.4c3.6,0,6.5-2.9,6.5-6.5s-2.9-6.5-6.5-6.5h-17
	C1.1,6.5,0.6,6,0.6,5.3s0.5-1.2,1.2-1.2h17c4.9,0,9,4,9,9C27.8,18,23.8,22,18.8,22z"/>
<path class="st0" d="M5.4,10.4c-0.3,0-0.6-0.1-0.9-0.4l-4-4c-0.5-0.5-0.5-1.3,0-1.7l4-4c0.5-0.5,1.3-0.5,1.7,0s0.5,1.3,0,1.7
	L3.1,5.2l3.1,3.1c0.5,0.5,0.5,1.3,0,1.7C6,10.3,5.7,10.4,5.4,10.4z"/>
</svg>
