<?xml version="1.0" encoding="utf-8"?>
<!-- Generator: Adobe Illustrator 23.0.1, SVG Export Plug-In . SVG Version: 6.00 Build 0)  -->
<svg version="1.1" id="Слой_1" xmlns="http://www.w3.org/2000/svg" xmlns:xlink="http://www.w3.org/1999/xlink" x="0px" y="0px"
	 viewBox="0 0 26 22" style="enable-background:new 0 0 26 22;" xml:space="preserve">
<style type="text/css">
	.st0{fill:#292D32;}
</style>
<path class="st0" d="M13.6,21.8H6.2c-4.4,0-5.9-3.1-5.9-5.9V6.1c0-4.3,1.7-5.9,5.9-5.9h7.4c4.3,0,5.9,1.7,5.9,5.9v9.8
	C19.5,20.2,17.9,21.8,13.6,21.8z M6.2,2.2c-3.1,0-3.9,0.8-3.9,3.9v9.8c0,1.8,0.7,3.9,3.9,3.9h7.4c3.1,0,3.9-0.8,3.9-3.9V6.1
	c0-3.1-0.8-3.9-3.9-3.9H6.2z"/>
<path class="st0" d="M23.2,18.5c-0.6,0-1.3-0.2-2-0.7L18,15.5c-0.3-0.2-0.4-0.5-0.4-0.8V7.3c0-0.3,0.2-0.6,0.4-0.8l3.2-2.3
	c1.1-0.8,2.2-0.9,3.1-0.5c0.9,0.5,1.4,1.5,1.4,2.8v8.9c0,1.3-0.5,2.3-1.4,2.8C23.9,18.4,23.6,18.5,23.2,18.5z M19.5,14.2l2.8,2
	c0,0,0,0,0,0c0.5,0.3,0.8,0.4,1,0.3c0.2-0.1,0.3-0.4,0.3-1V6.6c0-0.6-0.2-0.9-0.3-1c-0.2-0.1-0.5,0-1,0.3l-2.8,2V14.2z"/>
<path class="st0" d="M12.4,10.8c-1.5,0-2.8-1.2-2.8-2.8s1.2-2.8,2.8-2.8c1.5,0,2.8,1.2,2.8,2.8S13.9,10.8,12.4,10.8z M12.4,7.3
	c-0.4,0-0.8,0.3-0.8,0.8s0.3,0.8,0.8,0.8s0.8-0.3,0.8-0.8S12.8,7.3,12.4,7.3z"/>
</svg>
